<svg width="303" height="72" viewBox="0 0 303 72" fill="none" xmlns="http://www.w3.org/2000/svg">
<path d="M1 1.00006C1 24.3334 1 47.6667 1 71C3.56054 69.9744 6.12024 68.9645 8.67909 67.9704C8.63064 48.0112 8.58237 28.052 8.53392 8.09286C11.6459 7.96477 14.7579 7.83913 17.8696 7.71616C21.453 7.57772 25.0361 7.44277 28.6191 7.31128C29.1952 7.29042 29.7713 7.30439 30.3462 7.33318C31.0639 7.368 31.7741 7.49781 32.468 7.68819C33.2422 7.83887 33.985 8.13966 34.6757 8.53485C35.5056 8.97187 36.2241 9.62174 36.8174 10.3711C37.6458 11.3659 38.2312 12.5709 38.5915 13.8428C38.9743 15.187 39.1758 16.5924 39.1946 18.0141C39.2123 19.3601 39.0232 20.7286 38.6181 22.0509C38.3094 23.1567 37.7981 24.2513 36.9992 25.0916C36.3097 25.8762 35.5217 26.5755 34.6536 27.1119C33.8612 27.5515 33.0467 27.94 32.215 28.249C31.5419 28.5115 30.8533 28.7205 30.1632 28.8294C29.7163 28.9003 29.2694 28.9713 28.8225 29.0427C23.9787 29.8308 19.1333 30.6466 14.2865 31.49C14.2968 34.0308 14.3084 36.5717 14.3194 39.1125C19.3883 38.0132 24.4551 36.9516 29.5199 35.9277C33.8281 43.0607 38.1548 49.8478 42.499 56.3077C45.0456 55.5425 47.5913 54.7937 50.1361 54.0612C45.5601 47.4669 41.0023 40.5331 36.4639 33.2378C37.4488 32.6529 38.3946 31.9767 39.2926 31.2419C40.1446 30.5611 40.9485 29.8153 41.7166 29.0394C42.5862 28.1582 43.3476 27.1727 43.9653 26.1141C44.757 24.6825 45.2775 23.1327 45.5539 21.5775C45.8906 19.9724 46.0563 18.3507 46.031 16.746C46.007 15.2238 45.8379 13.7076 45.4883 12.2406C45.2436 11.0176 44.9058 9.80446 44.3353 8.70081C43.4327 7.08508 42.1976 5.63607 40.6669 4.60183C39.3105 3.63468 37.8227 2.8474 36.2485 2.34285C34.9026 1.83666 33.5048 1.46538 32.0855 1.34472C31.1203 1.21379 30.1541 1.08264 29.185 1C24.2533 1 19.3217 1 14.39 1C9.92671 1 5.46341 1 1.0001 1L1 1.00006ZM60.9494 1C60.9875 2.76 61.0256 4.51999 61.0637 6.27997C72.5623 5.98448 84.0588 5.7263 95.5534 5.50581C95.9457 16.8507 96.3381 28.1955 96.7305 39.5403C84.9364 41.4635 73.1244 43.7208 61.2947 46.3089C61.3283 47.8777 61.362 49.4466 61.3956 51.0155C75.5635 47.6403 89.7034 44.7888 103.815 42.4673C103.305 28.6449 102.795 14.8224 102.286 1C88.507 1 74.7282 1 60.9494 1H60.9494ZM113.382 1C113.924 14.4922 114.466 27.9844 115.008 41.4766C117.32 41.2137 119.63 40.9657 121.94 40.7325C121.443 28.8747 120.945 17.017 120.448 5.15924C132.145 5.05925 143.839 4.99994 155.531 4.98167C155.469 3.65444 155.408 2.32723 155.347 1C141.359 1 127.37 1 113.382 1V1ZM209.661 1C210.114 13.6829 210.567 26.3658 211.021 39.0486C196.712 37.2233 182.374 35.9552 168.007 35.238C168.067 36.5715 168.128 37.9049 168.189 39.2383C184.838 40.2236 201.443 42.0374 218.003 44.6909C217.519 30.1273 217.034 15.5636 216.55 1C214.254 1 211.957 1 209.661 1V1ZM227.646 1C228.085 16.1303 228.525 31.2605 228.964 46.3908C231.234 46.8941 233.502 47.4134 235.769 47.9489C235.357 32.2993 234.946 16.6496 234.534 1C232.238 1 229.942 1 227.646 1ZM246.884 1C253.068 7.90941 259.227 15.3077 265.357 23.2405C266.989 21.4819 268.623 19.6869 270.259 17.8545C265.407 11.9169 260.539 6.30578 255.654 1C252.73 1 249.807 1 246.884 1V1ZM291.98 1C276.716 20.8719 261.64 37.2117 246.714 50.7643C249.8 51.6274 252.884 52.5209 255.966 53.4448C262.014 48.1323 268.084 42.3925 274.181 36.1766C280.434 45.6873 286.65 55.9212 292.823 66.9286C295.884 68.2543 298.943 69.6114 302 70.9999C294.425 56.396 286.782 43.0546 279.077 30.8786C286.459 21.8758 293.89 11.9459 301.375 1C298.243 1 295.112 1 291.98 1V1ZM65.2018 22.2872C65.2416 24.0125 65.2816 25.7377 65.3215 27.463C73.7287 26.3914 82.1306 25.4207 90.5271 24.5516C90.4771 23.0162 90.4269 21.4807 90.3769 19.9452C81.9896 20.6444 73.5979 21.4252 65.2018 22.2872ZM126.637 17.8762C126.696 19.244 126.755 20.6118 126.814 21.9795C135.392 21.658 143.964 21.4484 152.53 21.3513C152.469 20.0245 152.407 18.6977 152.346 17.3709C143.781 17.449 135.212 17.6176 126.637 17.8762Z" fill="#AA43FF" fill-opacity="0.98848" stroke="#AA43FF" stroke-opacity="0.98848" stroke-width="2" stroke-linejoin="round"/>
</svg>
